<svg xmlns="http://www.w3.org/2000/svg" height="24px" viewBox="0 -960 960 960" width="24px" fill="#000"><path d="M172-46q-53 0-89.5-36.5T46-172v-616q0-53 36.5-89.5T172-914h616q53 0 89.5 36.5T914-788v616q0 53-36.5 89.5T788-46H172Zm171.5-353.5Q332-411 332-428t11.5-28.5Q355-468 372-468t28.5 11.5Q412-445 412-428t-11.5 28.5Q389-388 372-388t-28.5-11.5Zm216 0Q548-411 548-428t11.5-28.5Q571-468 588-468t28.5 11.5Q628-445 628-428t-11.5 28.5Q605-388 588-388t-28.5-11.5ZM212-504v249q0 14 9 23t23 9h16q14 0 23-9t9-23v-33h376v33q0 14 9 23t23 9h16q14 0 23-9t9-23v-249l-63-184q-5-14-17.43-27T640-728H320q-15.14 0-27.57 12T275-688l-63 184Zm106-64 28-80h268l28 80H318Z"/></svg>