<?xml version="1.0" encoding="UTF-8"?>
<svg id="Layer_2" data-name="Layer 2" xmlns="http://www.w3.org/2000/svg" viewBox="0 0 504.87 357.65">
  <defs>
    <style>
      .cls-1 {
        fill: #fff;
      }
    </style>
  </defs>
  <g id="Camada_1" data-name="Camada 1">
    <g>
      <path class="cls-1" d="M384.32,173.83c-70.58,10.47-80.15,23.32-81.36,25.78,8.41-21.63,80.46-30.38,145.44-47.28,65.41-17.01,55.99-70.32,55.99-70.32-6.28,26.89-10.31,43.67-85.56,61.14-75.24,17.47-96.74,30.92-96.74,30.92,20.8-19.49,149.21-41.89,169.01-88.92,19.8-47.04-7.28-81.09-7.28-81.09,37.62,80.2-75.29,109.96-153.25,142.04-16.85,6.91-33.83,17.63-45.82,35.24-21.63-.5-6-20.94-6-20.94-4.33-6.71-10.53-7.59-10.53-7.59-8.34-1.1.36-9.96.36-9.96,13.5-20.45-7.7-28.34-7.7-28.34,5.37-9.78-3.37-13.96-6.41-15.08-.64-.23-1.33-.23-1.96,0-3.04,1.12-11.78,5.3-6.41,15.08,0,0-21.2,7.89-7.7,28.34,0,0,8.7,8.87.36,9.96,0,0-6.19.89-10.53,7.59,0,0,15.37,20.11-5.52,20.92-.1-.17-.2-.35-.31-.52-12.05-19.72-30.15-31.38-48.08-38.75C96.33,109.96-16.54,80.2,21.09,0c0,0-27.09,34.05-7.28,81.09,19.8,47.03,148.16,69.43,169.01,88.92,0,0-21.5-13.45-96.74-30.92C10.82,121.63,6.75,104.8.47,77.96c0,0-9.42,53.31,55.99,70.32,64.99,16.9,137.03,25.65,145.44,47.28-1.21-2.46-10.78-15.31-81.36-25.77-78.39-11.66-94.54-14.34-103.92-32.24,0,0-3.56,37.2,55.57,39.87,59.13,2.68,125.42,8.95,135.73,32.7,0,0-11.2-18.36-69.01-20.15-57.81-1.78-81.09.43-101.71-10.34,0,0,16.82,28.44,64.75,23.98,47.89-4.45,91.99-9.18,111.73,20.78-1.03-1.42-18.85-24.75-79.23-16.52-62.26,8.49-69.43,1.78-69.43,1.78,0,0,10.73,17.01,44.37,12.56,33.63-4.46,90.66-14.15,100.78,8.95,12.51,28.44-28.67,57.34-28.67,57.34,7.36-5.19,15.65-8.72,22.82-14.45,4.55-3.66,8.72-7.95,12.4-12.68l-.03,15.96c-40.63,34.16-117.9,48.67-117.9,48.67,0,0,23.98,6.93,51.96-1.79,24.45-7.63,58.95-29.94,65.91-34.53v.23c-7.07,5.91-42.52,34.8-66.15,40.81-15.27,3.87-28.9,4.26-28.9,4.26,0,0,29.83,6.43,48.82,0,18.12-6.14,35.26-20.79,46.2-31.68v2.62c-10.15,12.15-25.25,27.78-39.73,33.28-21.2,8.06-36,3.8-36,3.8,0,0,37.2,19.72,61.37-7.17,4.54-5.05,9.43-10.78,14.32-17.04l-.06,29.19,16.63.12s.73-19.58,17.76-23.05v-189.04c-2.87-1.18-4.75-4.28-4.03-7.71.54-2.54,2.59-4.6,5.14-5.13,4.37-.91,8.21,2.39,8.21,6.6,0,2.82-1.73,5.23-4.19,6.24v189.04c17.03,3.46,17.76,23.05,17.76,23.05l16.63-.12-.06-29.08c4.87,6.23,9.73,11.92,14.24,16.94,24.18,26.89,61.37,7.17,61.37,7.17,0,0-14.8,4.26-35.99-3.8-14.46-5.49-29.52-21.02-39.65-33.15v-2.65c10.94,10.88,28.04,25.47,46.07,31.57,18.99,6.43,48.82,0,48.82,0,0,0-13.63-.39-28.9-4.26-23.5-5.98-58.69-34.59-66.03-40.71v-.25c7.22,4.76,41.47,26.86,65.79,34.45,27.98,8.72,51.96,1.79,51.96,1.79,0,0-77.12-14.52-117.78-48.59l-.02-9.37c3.13,3.7,6.57,7.1,10.25,10.08,7.17,5.74,15.46,9.26,22.82,14.45,0,0-41.18-28.91-28.67-57.35,10.11-23.09,67.15-13.41,100.78-8.95,33.64,4.46,44.37-12.56,44.37-12.56,0,0-7.17,6.71-69.43-1.78-60.38-8.23-78.2,15.09-79.23,16.52,19.74-29.96,63.85-25.23,111.74-20.78,47.92,4.46,64.74-23.98,64.74-23.98-20.61,10.77-43.9,8.53-101.71,10.31-57.81,1.79-69.01,20.15-69.01,20.15,10.31-23.75,76.6-30.03,135.73-32.7,59.13-2.68,55.57-39.87,55.57-39.87-9.38,17.9-25.53,20.58-103.92,32.24Z"/>
      <circle class="cls-1" cx="253.46" cy="343.61" r="14.03"/>
    </g>
  </g>
</svg>