<?xml version="1.0" encoding="UTF-8"?>
<svg id="Layer_2" data-name="Layer 2" xmlns="http://www.w3.org/2000/svg" viewBox="0 0 210.53 72.43">
  <defs>
    <style>
      .cls-1 {
        fill: #fff;
      }
    </style>
  </defs>
  <g id="Camada_1" data-name="Camada 1">
    <g>
      <g>
        <path class="cls-1" d="M77.83,35.2c-14.29,2.12-16.23,4.72-16.48,5.22,1.7-4.38,16.29-6.15,29.45-9.58,13.25-3.44,11.34-14.24,11.34-14.24-1.27,5.45-2.09,8.84-17.33,12.38-15.24,3.54-19.59,6.26-19.59,6.26,4.21-3.95,30.22-8.48,34.23-18.01,4.01-9.53-1.48-16.42-1.48-16.42,7.62,16.24-15.25,22.27-31.03,28.77-3.41,1.4-6.85,3.57-9.28,7.14-4.38-.1-1.21-4.24-1.21-4.24-.88-1.36-2.13-1.54-2.13-1.54-1.69-.22.07-2.02.07-2.02,2.73-4.14-1.56-5.74-1.56-5.74,1.09-1.98-.68-2.83-1.3-3.05-.13-.05-.27-.05-.4,0-.62.23-2.39,1.07-1.3,3.05,0,0-4.29,1.6-1.56,5.74,0,0,1.76,1.8.07,2.02,0,0-1.25.18-2.13,1.54,0,0,3.11,4.07-1.12,4.24-.02-.04-.04-.07-.06-.11-2.44-3.99-6.11-6.36-9.74-7.85C19.51,22.27-3.35,16.24,4.27,0c0,0-5.49,6.9-1.48,16.42,4.01,9.53,30.01,14.06,34.23,18.01,0,0-4.35-2.72-19.59-6.26C2.19,24.63,1.37,21.22.1,15.79c0,0-1.91,10.8,11.34,14.24,13.16,3.42,27.75,5.2,29.45,9.57-.24-.5-2.18-3.1-16.48-5.22-15.87-2.36-19.15-2.9-21.05-6.53,0,0-.72,7.53,11.25,8.07,11.97.54,25.4,1.81,27.49,6.62,0,0-2.27-3.72-13.98-4.08-11.71-.36-16.42.09-20.6-2.09,0,0,3.41,5.76,13.11,4.86,9.7-.9,18.63-1.86,22.63,4.21-.21-.29-3.82-5.01-16.04-3.34-12.61,1.72-14.06.36-14.06.36,0,0,2.17,3.45,8.98,2.54,6.81-.9,18.36-2.86,20.41,1.81,2.53,5.76-5.81,11.61-5.81,11.61,1.49-1.05,3.17-1.77,4.62-2.93.92-.74,1.76-1.61,2.51-2.57v3.23c-8.24,6.92-23.88,9.86-23.88,9.86,0,0,4.86,1.4,10.52-.36,4.95-1.55,11.94-6.06,13.35-6.99v.05c-1.43,1.2-8.61,7.05-13.4,8.26-3.09.78-5.85.86-5.85.86,0,0,6.04,1.3,9.89,0,3.67-1.24,7.14-4.21,9.36-6.41v.53c-2.05,2.46-5.11,5.63-8.05,6.74-4.29,1.63-7.29.77-7.29.77,0,0,7.53,3.99,12.43-1.45.92-1.02,1.91-2.18,2.9-3.45v5.91s3.36.02,3.36.02c0,0,.15-3.97,3.6-4.67V27.55c-.58-.24-.96-.87-.82-1.56.11-.52.53-.93,1.04-1.04.88-.18,1.66.48,1.66,1.34,0,.57-.35,1.06-.85,1.26v38.28c3.45.7,3.6,4.67,3.6,4.67l3.37-.02v-5.89c.97,1.26,1.96,2.41,2.87,3.43,4.9,5.45,12.43,1.45,12.43,1.45,0,0-3,.86-7.29-.77-2.93-1.11-5.98-4.26-8.03-6.71v-.54c2.22,2.2,5.68,5.16,9.33,6.39,3.84,1.3,9.89,0,9.89,0,0,0-2.76-.08-5.85-.86-4.76-1.21-11.89-7-13.37-8.24v-.05c1.46.96,8.4,5.44,13.32,6.98,5.67,1.77,10.52.36,10.52.36,0,0-15.62-2.94-23.85-9.84v-1.9c.63.75,1.33,1.44,2.07,2.04,1.45,1.16,3.13,1.87,4.62,2.93,0,0-8.34-5.85-5.81-11.61,2.05-4.68,13.6-2.72,20.41-1.81,6.81.9,8.98-2.54,8.98-2.54,0,0-1.45,1.36-14.06-.36-12.23-1.67-15.84,3.06-16.04,3.34,4-6.07,12.93-5.11,22.63-4.21,9.71.9,13.11-4.86,13.11-4.86-4.17,2.18-8.89,1.73-20.6,2.09-11.71.36-13.98,4.08-13.98,4.08,2.09-4.81,15.51-6.08,27.49-6.62,11.98-.54,11.25-8.07,11.25-8.07-1.9,3.63-5.17,4.17-21.05,6.53Z"/>
        <circle class="cls-1" cx="51.33" cy="69.59" r="2.84"/>
      </g>
      <g>
        <g>
          <path class="cls-1" d="M114.24,33.02c-.51,0-.73-.29-.73-.87V9.1c0-.62.26-.87.84-.87h6.89c5.76,0,7.73,2.7,7.73,5.61v13.56c0,2.92-1.97,5.61-7.73,5.61h-7ZM118.1,12.06v17.13h3.1c2.04,0,3.21-.8,3.21-2.33v-12.47c0-1.53-1.17-2.33-3.21-2.33h-3.1Z"/>
          <path class="cls-1" d="M132.72,13.55c0-2.92,1.97-5.61,7.69-5.61s7.76,2.7,7.76,5.61v14.14c0,2.92-2,5.61-7.76,5.61s-7.69-2.7-7.69-5.61v-14.14ZM143.58,14.06c0-1.53-1.17-2.3-3.17-2.3s-3.13.77-3.13,2.3v13.12c0,1.53,1.13,2.3,3.13,2.3s3.17-.77,3.17-2.3v-13.12Z"/>
          <path class="cls-1" d="M172.01,32.14c0,.62-.22.87-.8.87h-2.77c-.58,0-.8-.26-.8-.87v-14.43c-.26.95-.58,2.19-.84,2.92l-2.37,7.03c-.22.62-.55.87-1.09.87h-2.44c-.58,0-.88-.29-1.09-.87l-2.62-7.4c-.22-.62-.47-1.68-.66-2.48v14.36c0,.62-.22.87-.8.87h-2.62c-.62,0-.87-.26-.87-.87V9.1c0-.62.26-.87.87-.87h3.1c.47,0,.66.22.8.58l4.34,11.63c.26.69.66,2.11.84,2.84.22-.84.55-1.97.84-2.81l4.23-11.74c.11-.33.4-.51.8-.51h3.17c.58,0,.8.26.8.87v23.04Z"/>
          <path class="cls-1" d="M180.94,27.18c0,1.53,1.13,2.3,3.13,2.3s3.17-.77,3.17-2.3V9.1c0-.62.22-.87.8-.87h2.95c.62,0,.8.26.8.87v18.59c0,2.92-1.97,5.61-7.73,5.61s-7.73-2.7-7.73-5.61V9.1c0-.62.26-.87.84-.87h2.95c.58,0,.8.26.8.87v18.08Z"/>
          <path class="cls-1" d="M205.91,13.88c0-1.49-.95-2.22-2.92-2.22s-2.88.73-2.88,2.22v1.09c0,1.24.62,1.79,1.31,2.11l5.58,2.55c1.93.87,3.54,2.37,3.54,4.96v3.1c0,2.92-1.9,5.61-7.58,5.61s-7.65-2.7-7.65-5.61v-2.48c0-.66.26-.91.84-.91h2.84c.58,0,.8.26.8.91v2.11c0,1.53,1.09,2.26,3.13,2.26s3.13-.73,3.13-2.26v-1.75c0-1.42-1.2-2.04-2.48-2.66l-5.07-2.44c-1.53-.73-2.84-2.44-2.84-4.52v-2.41c0-2.92,1.64-5.61,7.33-5.61s7.36,2.7,7.36,5.61v1.75c0,.58-.22.87-.84.87h-2.81c-.62,0-.8-.29-.8-.87v-1.42Z"/>
        </g>
        <g>
          <path class="cls-1" d="M114.35,67.61c-.58,0-.84-.26-.84-.87v-23.04c0-.62.26-.87.84-.87h10.68c.58,0,.84.22.84.8v2.19c0,.58-.26.84-.84.84h-6.93v6.27h6.38c.62,0,.87.22.87.8v2.04c0,.58-.26.84-.87.84h-6.38v7.18h7.22c.62,0,.87.22.87.8v2.19c0,.62-.26.84-.87.84h-10.97Z"/>
          <path class="cls-1" d="M141.79,42.82c.58,0,.84.22.84.8v2.19c0,.58-.26.84-.84.84h-4.26v20.08c0,.62-.22.87-.8.87h-2.92c-.62,0-.84-.26-.84-.87v-20.08h-4.26c-.62,0-.87-.26-.87-.84v-2.19c0-.58.26-.8.87-.8h13.09Z"/>
          <path class="cls-1" d="M149.81,52.92h6.31v-9.22c0-.62.26-.87.8-.87h2.95c.58,0,.8.26.8.87v23.04c0,.62-.22.87-.8.87h-2.95c-.55,0-.8-.26-.8-.87v-10.02h-6.31v10.02c0,.62-.18.87-.8.87h-2.95c-.58,0-.84-.26-.84-.87v-23.04c0-.62.26-.87.84-.87h2.95c.62,0,.8.26.8.87v9.22Z"/>
          <path class="cls-1" d="M169.68,66.73c0,.62-.18.87-.8.87h-2.95c-.58,0-.84-.26-.84-.87v-23.04c0-.62.26-.87.84-.87h2.95c.62,0,.8.26.8.87v23.04Z"/>
          <path class="cls-1" d="M188.7,62.28c0,2.92-1.68,5.61-7.47,5.61s-7.44-2.7-7.44-5.61v-14.14c0-2.92,1.71-5.61,7.44-5.61s7.47,2.7,7.47,5.61v2c0,.62-.22.88-.8.88h-2.81c-.62,0-.84-.26-.84-.88v-1.53c0-1.49-.98-2.26-2.95-2.26s-2.95.77-2.95,2.26v13.19c0,1.49.95,2.26,2.95,2.26s2.95-.77,2.95-2.26v-2.04c0-.62.22-.84.84-.84h2.81c.58,0,.8.22.8.84v2.52Z"/>
          <path class="cls-1" d="M200.22,42.82c.58,0,.91.29,1.06.87l5.83,23.04c.15.58-.04.87-.62.87h-2.95c-.62,0-.88-.33-1.02-.87l-1.13-4.74h-5.61l-1.13,4.74c-.15.55-.4.87-.98.87h-2.73c-.62,0-.8-.29-.66-.87l5.87-23.04c.15-.58.47-.87,1.06-.87h3.03ZM199.49,53.94c-.36-1.46-.8-5.03-.88-5.76-.11.87-.55,4.34-.91,5.76l-1.09,4.41h3.94l-1.06-4.41Z"/>
        </g>
      </g>
    </g>
  </g>
</svg>